<svg width="30" height="32" viewBox="0 0 30 32" fill="none" xmlns="http://www.w3.org/2000/svg">
<path d="M27.8954 25.9141C27.6694 27.5804 26.5379 29.0213 24.9546 29.6618C24.1787 29.9813 23.338 30.0784 22.4974 29.9813C21.6899 29.8858 20.8808 29.629 20.0417 29.1497C18.8786 28.5077 17.7141 27.5162 16.3567 26.0426C18.4899 23.4476 19.7826 21.078 20.2677 18.9638C20.4937 17.9709 20.5268 17.0735 20.4289 16.2404C20.2993 15.4401 20.0085 14.7025 19.5566 14.062C18.5547 12.6211 16.8734 11.788 14.9993 11.788C13.1251 11.788 11.4438 12.6525 10.4419 14.062C9.98996 14.7025 9.6992 15.4401 9.56963 16.2404C9.44007 17.0735 9.47322 18.0022 9.73084 18.9638C10.2159 21.078 11.5402 23.4804 13.6418 26.0739C12.3161 27.5476 11.1214 28.5405 9.95682 29.181C9.11616 29.6618 8.30865 29.9186 7.50114 30.0142C6.66801 30.1068 5.82585 29.9963 5.04545 29.6947C3.46207 29.0541 2.33065 27.6118 2.10466 25.947C2.00824 25.1467 2.07302 24.3464 2.39543 23.449C2.49185 23.128 2.65455 22.8085 2.81576 22.4248C3.04174 21.9127 3.30087 21.3677 3.55849 20.8227L3.59163 20.7585C5.82133 15.9851 8.21374 11.1161 10.7026 6.37551L10.799 6.1829C11.0581 5.70362 11.3157 5.19 11.5749 4.70922C11.834 4.19709 12.1247 3.71631 12.4803 3.29974C13.1598 2.5308 14.0637 2.11422 15.0655 2.11422C16.0674 2.11422 16.9728 2.5308 17.6508 3.29974C18.0063 3.71631 18.2971 4.19709 18.5562 4.70922C18.8154 5.19 19.073 5.70213 19.3321 6.18141L19.43 6.37402C21.8857 11.146 24.2781 16.0149 26.5078 20.7884V20.8197C26.7669 21.3318 26.9929 21.9097 27.2505 22.4218C27.4117 22.807 27.5745 23.1265 27.6709 23.4461C27.9285 24.2807 28.0249 25.081 27.8954 25.9141ZM14.9993 24.4076C13.2547 22.2292 12.1232 20.1792 11.7346 18.4502C11.5734 17.7126 11.5402 17.072 11.6381 16.4957C11.7029 15.9836 11.8973 15.5342 12.1549 15.1504C12.7696 14.2859 13.803 13.7409 14.9993 13.7409C16.1955 13.7409 17.2621 14.2546 17.8436 15.1504C18.1028 15.5356 18.2956 15.9836 18.3604 16.4957C18.4568 17.072 18.4252 17.7454 18.264 18.4502C17.8768 20.1478 16.7453 22.1978 14.9993 24.4076ZM29.5767 22.7428C29.4155 22.3591 29.2528 21.9425 29.0916 21.5901C28.8324 21.0138 28.5748 20.4688 28.3473 19.9567L28.3157 19.9253C26.086 15.1206 23.6936 10.2516 21.1731 5.44681L21.0767 5.2542C20.8176 4.77342 20.5599 4.26129 20.3008 3.74916C19.9769 3.17283 19.6545 2.56364 19.1378 1.98731C18.1028 0.704741 16.6158 0 15.0324 0C13.4159 0 11.962 0.704741 10.8939 1.92161C10.4088 2.49795 10.0532 3.10713 9.73084 3.68346C9.47171 4.1956 9.21409 4.70773 8.95496 5.1885L8.85854 5.37962C6.36972 10.1844 3.94567 15.0534 1.71597 19.8582L1.68433 19.9224C1.45835 20.4345 1.19922 20.9795 0.940097 21.5558C0.766843 21.9351 0.605642 22.3203 0.454986 22.7085C0.0346579 23.894 -0.0949057 25.0153 0.0662955 26.168C0.421842 28.5704 2.03837 30.589 4.26807 31.4849C5.10873 31.8373 5.98102 31.997 6.88646 31.997C7.14559 31.997 7.46799 31.9657 7.72712 31.9328C8.79376 31.8044 9.89204 31.4535 10.9587 30.8443C12.2844 30.1083 13.5439 29.0511 14.9661 27.5133C16.3883 29.0511 17.6809 30.1083 18.9735 30.8443C20.0402 31.4535 21.1385 31.8044 22.2051 31.9328C22.4642 31.9657 22.7866 31.997 23.0458 31.997C23.9512 31.997 24.8551 31.8373 25.6641 31.4849C27.927 30.5875 29.5104 28.5375 29.8659 26.168C30.1251 25.0482 29.9955 23.9283 29.5767 22.7428Z" fill="#E0565B"/>
</svg>
